<?xml version="1.0" encoding="UTF-8"?>
<svg version="1.1" viewBox="0 0 640 512" xmlns="http://www.w3.org/2000/svg">
 <!--! Font Awesome Pro 6.0.0 by @fontawesome - https://fontawesome.com License - https://fontawesome.com/license (Commercial License) Copyright 2022 Fonticons, Inc. -->
 <path d="m325.36 5.1939c-8.5865 0.098159-17.051 3.2332-23.709 9.1258l-152.62 135.05h-94.759c-29.977 0-54.277 24.208-54.277 54.051v108.1c0 29.842 24.3 54.048 54.277 54.048h94.803l152.54 135.01c6.7394 5.9279 15.333 9.084 24.04 9.084 5.0183 0 10.131-1.0507 14.881-3.196 13.049-5.8208 21.303-18.668 21.303-32.755v-432.51c0-14.166-8.2555-27.035-21.259-32.838-4.8764-2.1896-10.071-3.2241-15.223-3.1652zm194.96 79.703c-8.6691-0.80482-17.585 2.5309-23.55 9.7422-9.5052 11.54-7.8094 28.569 3.781 38.024 38.374 30.225 60.31 76.657 60.31 123.76 0 47.107-21.983 92.526-60.282 124.76-11.59 9.4621-13.286 26.482-3.781 38.022 5.3711 6.5083 13.14 9.8852 20.988 9.8852 6.0779 0 12.157-2.0034 17.211-6.1191 50.968-40.548 80.141-101.29 80.141-166.55s-29.174-124.08-80.172-165.55c-4.3336-3.5221-9.4455-5.4953-14.647-5.9782zm118.69 46.58c-0.21566 0.25146-0.43525 0.51838-0.66256 0.80562 0.12458 0.23662 0.25999 0.46751 0.38428 0.70436 0.0917-0.50363 0.18136-1.0076 0.27828-1.51zm-187.15 36.605c-8.6791-0.79151-17.574 2.5663-23.468 9.7994-9.5052 11.54-7.8091 28.569 3.8163 38.024 12.749 10.434 20.1 25.534 20.1 40.523 0 15.969-7.3506 31.093-20.14 41.506-11.624 9.4621-13.32 26.484-3.8163 38.024 5.3361 6.5432 13.14 9.9204 20.988 9.9204 6.0428 0 12.155-2.0064 17.176-6.0861 25.482-19.804 40.069-50.119 40.069-83.365s-14.587-61.645-40.03-82.381c-4.3591-3.5221-9.4881-5.4901-14.696-5.965z" stroke-width="1.1289"/>
</svg>
